<?xml version="1.0" encoding="UTF-8" standalone="no"?>
<!-- Created with Inkscape (http://www.inkscape.org/) -->

<svg
   xmlns:dc="http://purl.org/dc/elements/1.1/"
   xmlns:cc="http://creativecommons.org/ns#"
   xmlns:rdf="http://www.w3.org/1999/02/22-rdf-syntax-ns#"
   xmlns:svg="http://www.w3.org/2000/svg"
   xmlns="http://www.w3.org/2000/svg"
   xmlns:sodipodi="http://sodipodi.sourceforge.net/DTD/sodipodi-0.dtd"
   xmlns:inkscape="http://www.inkscape.org/namespaces/inkscape"
   width="264.58334mm"
   height="42.134476mm"
   viewBox="0 0 264.58334 42.134476"
   version="1.1"
   id="svg2210"
   inkscape:version="0.92.4 (5da689c313, 2019-01-14)"
   sodipodi:docname="Bank DKI.svg">
  <defs
     id="defs2204">
    <clipPath
       clipPathUnits="userSpaceOnUse"
       id="clipPath1599">
      <path
         d="M 0,0 H 595.276 V 841.89 H 0 Z"
         id="path1597"
         inkscape:connector-curvature="0" />
    </clipPath>
  </defs>
  <sodipodi:namedview
     id="base"
     pagecolor="#ffffff"
     bordercolor="#666666"
     borderopacity="1.0"
     inkscape:pageopacity="0.0"
     inkscape:pageshadow="2"
     inkscape:zoom="0.35"
     inkscape:cx="121.98135"
     inkscape:cy="19.425497"
     inkscape:document-units="mm"
     inkscape:current-layer="layer1"
     showgrid="false"
     fit-margin-top="0"
     fit-margin-left="0"
     fit-margin-right="0"
     fit-margin-bottom="0"
     inkscape:window-width="1920"
     inkscape:window-height="1001"
     inkscape:window-x="-9"
     inkscape:window-y="-9"
     inkscape:window-maximized="1" />
  <metadata
     id="metadata2207">
    <rdf:RDF>
      <cc:Work
         rdf:about="">
        <dc:format>image/svg+xml</dc:format>
        <dc:type
           rdf:resource="http://purl.org/dc/dcmitype/StillImage" />
        <dc:title></dc:title>
      </cc:Work>
    </rdf:RDF>
  </metadata>
  <g
     inkscape:label="Layer 1"
     inkscape:groupmode="layer"
     id="layer1"
     transform="translate(50.795065,-111.83852)">
    <g
       transform="matrix(1.4460318,0,0,-1.4460318,-581.61454,1283.2443)"
       id="g1593">
      <g
         id="g1595"
         clip-path="url(#clipPath1599)">
        <g
           id="g1601"
           transform="translate(473.571,781.915)">
          <path
             d="m 0,0 c 0,0 -1.662,3.547 -3.203,6.892 -1.375,2.94 -2.668,5.709 -2.724,5.83 -0.096,0.192 -0.197,0.556 -0.101,0.96 0.081,0.293 0.42,0.829 0.667,1.152 0.48,0.601 0.642,0.93 0.707,1.369 L 2.39,1.102 3.228,-0.682 C 4.097,-0.51 4.951,-0.242 5.744,0.091 4.8,2.137 3.824,4.234 3.228,5.558 L 3.203,5.553 c 0,0 -5.805,12.474 -5.911,12.706 -0.106,0.198 -0.238,0.546 -0.106,0.971 0.07,0.308 0.419,0.823 0.681,1.157 0.471,0.611 0.622,0.919 0.678,1.359 L 3.875,10.327 8.109,1.268 C 8.857,1.774 9.574,2.319 10.221,2.93 8.952,5.669 7.265,9.291 6.422,11.1 H 6.416 c 0,0 -5.805,12.48 -5.921,12.727 -0.096,0.192 -0.217,0.566 -0.116,0.945 0.08,0.303 0.44,0.859 0.702,1.167 0.465,0.616 0.616,0.94 0.667,1.385 L 7.164,15.713 12.125,5.073 c 1.734,2.415 2.774,5.34 2.774,8.523 0,8.043 -6.533,14.572 -14.576,14.572 -8.043,0 -14.561,-6.529 -14.561,-14.572 0,-5.775 3.35,-10.736 8.21,-13.09 -1.5,3.208 -3.047,6.522 -3.097,6.668 -0.096,0.172 -0.227,0.536 -0.096,0.93 0.056,0.319 0.42,0.849 0.677,1.162 0.485,0.622 0.632,0.95 0.677,1.385 l 5.285,-11.333 c 0.94,-0.197 1.925,-0.288 2.905,-0.288 H 0.444 C 0.308,-0.656 0.146,-0.318 0,0"
             style="fill:#e51d22;fill-opacity:1;fill-rule:nonzero;stroke:none"
             id="path1603"
             inkscape:connector-curvature="0" />
        </g>
        <g
           id="g1605"
           transform="translate(376.55,796.425)">
          <path
             d="m 0,0 h 2.638 c 0.787,0 1.5,0.152 2.096,0.435 0.849,0.378 1.49,0.97 1.981,1.798 0.51,0.794 0.747,1.713 0.747,2.734 0,1.142 -0.338,1.96 -1.02,2.425 C 5.967,7.751 5.068,7.912 3.8,7.912 3.062,7.912 2.547,7.831 2.294,7.669 2.036,7.533 1.854,7.21 1.733,6.796 Z m -0.374,-1.283 v 0 l -1.854,-7.271 c -0.061,-0.197 -0.086,-0.399 -0.086,-0.586 0,-0.257 0.106,-0.439 0.298,-0.561 0.218,-0.141 0.611,-0.181 1.208,-0.181 H 1.41 c 1.066,0 1.945,0.181 2.647,0.591 0.718,0.399 1.294,1.041 1.758,1.92 0.445,0.879 0.672,1.834 0.672,2.799 0,1.035 -0.328,1.813 -0.98,2.409 -0.652,0.582 -1.622,0.88 -2.869,0.88 z M -5.103,9.19 v 0 H 6.194 c 1.769,0 3.153,-0.404 4.098,-1.232 0.95,-0.804 1.44,-1.865 1.44,-3.148 0,-1.374 -0.49,-2.511 -1.476,-3.426 C 9.281,0.435 7.675,-0.161 5.431,-0.47 c 1.763,-0.157 3.102,-0.667 4.042,-1.546 0.9,-0.854 1.375,-1.98 1.375,-3.314 0,-1.188 -0.349,-2.259 -1.051,-3.193 -0.541,-0.692 -1.43,-1.289 -2.673,-1.839 -1.258,-0.541 -2.597,-0.819 -4.062,-0.819 H -9.463 l 0.293,1.223 h 1.324 c 0.783,0 1.268,0.434 1.45,1.242 l 3.915,15.325 c 0.046,0.187 0.061,0.373 0.061,0.545 0,0.238 -0.086,0.43 -0.273,0.597 -0.207,0.151 -0.571,0.207 -1.061,0.207 h -1.647 z"
             style="fill:#231f20;fill-opacity:1;fill-rule:nonzero;stroke:none"
             id="path1607"
             inkscape:connector-curvature="0" />
        </g>
        <g
           id="g1609"
           transform="translate(400.528,800.528)">
          <path
             d="M 0,0 -4.466,-7.28 H 0.97 Z m 1.511,5.088 v 0 H 3.349 L 5.638,-12.47 c 0.071,-0.55 0.233,-0.934 0.495,-1.141 0.369,-0.283 0.864,-0.45 1.466,-0.45 H 8.2 l -0.318,-1.222 h -8.943 l 0.293,1.222 h 0.672 c 0.692,0 1.142,0.086 1.41,0.283 0.247,0.182 0.384,0.475 0.384,0.844 0,0.141 -0.026,0.278 -0.061,0.464 l -0.47,3.639 h -6.563 l -1.314,-2.108 c -0.358,-0.616 -0.53,-1.167 -0.53,-1.657 0,-0.46 0.141,-0.818 0.409,-1.071 0.283,-0.248 0.723,-0.394 1.319,-0.394 h 0.53 l -0.298,-1.222 h -6.967 l 0.323,1.222 c 0.587,0.056 1.067,0.187 1.405,0.45 0.682,0.5 1.193,1.05 1.531,1.611 z"
             style="fill:#231f20;fill-opacity:1;fill-rule:nonzero;stroke:none"
             id="path1611"
             inkscape:connector-curvature="0" />
        </g>
        <g
           id="g1613"
           transform="translate(415.059,805.616)">
          <path
             d="m 0,0 h 5.841 l 6.567,-14.182 2.3,9.978 c 0.116,0.435 0.171,0.788 0.171,1.036 0,0.586 -0.212,1.061 -0.566,1.4 -0.374,0.348 -0.874,0.535 -1.49,0.535 H 12.272 L 12.58,0 h 6.705 L 18.946,-1.233 C 18.254,-1.258 17.713,-1.465 17.355,-1.829 16.835,-2.36 16.471,-3.077 16.259,-3.966 L 12.474,-20.371 H 10.958 L 3.4,-4.209 0.419,-15.435 c -0.141,-0.535 -0.212,-0.955 -0.212,-1.319 0,-0.702 0.248,-1.268 0.692,-1.703 0.47,-0.434 1.137,-0.657 2.006,-0.692 L 2.622,-20.371 H -4.87 l 0.298,1.222 c 0.843,0.056 1.576,0.309 2.111,0.809 0.546,0.51 0.93,1.162 1.153,2.031 l 3.506,13.141 c 0.075,0.333 0.121,0.581 0.121,0.738 0,0.364 -0.141,0.657 -0.439,0.894 -0.299,0.197 -0.814,0.303 -1.542,0.303 h -0.687 z"
             style="fill:#231f20;fill-opacity:1;fill-rule:nonzero;stroke:none"
             id="path1615"
             inkscape:connector-curvature="0" />
        </g>
        <g
           id="g1617"
           transform="translate(437.714,805.616)">
          <path
             d="M 0,0 H 9.089 L 8.725,-1.233 h -1.03 c -0.47,0 -0.804,-0.106 -1.041,-0.303 -0.238,-0.237 -0.43,-0.616 -0.581,-1.167 l -2.041,-8.084 7.811,7.124 c 0.571,0.521 0.843,0.995 0.843,1.399 0,0.309 -0.121,0.551 -0.343,0.743 -0.238,0.182 -0.611,0.288 -1.106,0.288 H 10.736 L 11.049,0 h 7.488 l -0.303,-1.233 c -0.804,-0.051 -1.485,-0.232 -2.057,-0.49 -0.56,-0.293 -1.252,-0.829 -2.041,-1.591 l -5.143,-4.689 4.466,-9.842 c 0.147,-0.354 0.319,-0.596 0.506,-0.758 0.187,-0.166 0.47,-0.298 0.833,-0.429 0.223,-0.061 0.657,-0.117 1.319,-0.117 l -0.308,-1.222 h -9.12 l 0.339,1.222 H 8.21 c 0.445,0 0.763,0.086 0.94,0.248 0.212,0.146 0.308,0.353 0.308,0.571 0,0.192 -0.035,0.389 -0.121,0.555 l -3.239,7.14 -2.637,-2.416 -1.278,-4.956 c -0.005,-0.111 -0.02,-0.207 -0.02,-0.323 0,-0.258 0.095,-0.455 0.302,-0.591 0.182,-0.142 0.546,-0.228 1.036,-0.228 h 1.4 l -0.319,-1.222 h -9.291 l 0.339,1.222 h 0.783 c 0.52,0 0.914,0.117 1.187,0.309 0.232,0.212 0.425,0.51 0.526,0.995 l 3.91,15.308 c 0.045,0.142 0.071,0.303 0.071,0.44 0,0.278 -0.106,0.485 -0.304,0.657 -0.206,0.126 -0.54,0.207 -1.025,0.207 h -1.066 z"
             style="fill:#231f20;fill-opacity:1;fill-rule:nonzero;stroke:none"
             id="path1619"
             inkscape:connector-curvature="0" />
        </g>
        <g
           id="g1621"
           transform="translate(500.707,786.543)">
          <path
             d="M 0,0 C 0.965,0 1.92,0.247 2.799,0.742 3.693,1.263 4.466,2.01 5.133,2.991 5.8,3.946 6.376,5.325 6.891,7.154 c 0.495,1.814 0.758,3.541 0.758,5.224 0,1.764 -0.404,3.138 -1.197,4.118 -0.713,0.864 -1.804,1.298 -3.254,1.298 -0.667,0 -1.111,-0.075 -1.344,-0.237 C 1.642,17.42 1.455,17.133 1.344,16.764 L -2.612,1.243 C -2.648,1.101 -2.648,0.97 -2.648,0.859 -2.648,0.571 -2.567,0.373 -2.44,0.247 -2.228,0.07 -1.93,0 -1.546,0 Z m -5.3,19.073 v 0 h 9.195 c 2.627,0 4.644,-0.708 6.038,-2.153 1.379,-1.44 2.092,-3.466 2.092,-6.022 0,-1.672 -0.319,-3.315 -0.92,-4.931 C 10.474,4.345 9.726,3.036 8.771,2.021 7.836,1.04 6.619,0.222 5.153,-0.394 3.673,-1.001 2.006,-1.299 0.176,-1.299 h -9.69 l 0.334,1.223 h 1.071 c 0.742,0 1.207,0.449 1.425,1.354 l 3.905,15.374 c 0.041,0.112 0.061,0.223 0.061,0.359 0,0.263 -0.106,0.455 -0.303,0.622 -0.192,0.126 -0.581,0.207 -1.147,0.207 h -1.531 z"
             style="fill:#231f20;fill-opacity:1;fill-rule:nonzero;stroke:none"
             id="path1623"
             inkscape:connector-curvature="0" />
        </g>
        <g
           id="g1625"
           transform="translate(518.921,805.616)">
          <path
             d="M 0,0 H 9.104 L 8.72,-1.233 H 7.705 c -0.48,0 -0.819,-0.106 -1.056,-0.303 C 6.407,-1.773 6.235,-2.152 6.093,-2.703 l -2.046,-8.084 7.801,7.124 c 0.561,0.521 0.859,0.995 0.859,1.399 0,0.309 -0.127,0.551 -0.364,0.743 -0.258,0.182 -0.596,0.288 -1.071,0.288 H 10.736 L 11.049,0 h 7.514 l -0.344,-1.233 c -0.789,-0.051 -1.476,-0.232 -2.026,-0.49 -0.566,-0.293 -1.258,-0.829 -2.072,-1.591 l -5.133,-4.689 4.497,-9.842 c 0.121,-0.354 0.298,-0.596 0.465,-0.758 0.181,-0.166 0.479,-0.298 0.838,-0.429 0.242,-0.061 0.682,-0.117 1.334,-0.117 l -0.318,-1.222 H 6.699 l 0.344,1.222 H 8.2 c 0.455,0 0.763,0.086 0.96,0.248 0.202,0.146 0.283,0.353 0.283,0.571 0,0.192 -0.025,0.389 -0.126,0.555 l -3.214,7.14 -2.642,-2.416 -1.253,-4.956 c -0.046,-0.111 -0.046,-0.207 -0.046,-0.323 0,-0.258 0.107,-0.455 0.299,-0.591 0.192,-0.142 0.56,-0.228 1.045,-0.228 h 1.379 l -0.313,-1.222 h -9.261 l 0.324,1.222 h 0.783 c 0.535,0 0.919,0.117 1.182,0.309 0.243,0.212 0.44,0.51 0.546,0.995 l 3.89,15.308 c 0.05,0.142 0.076,0.303 0.076,0.44 0,0.278 -0.091,0.485 -0.323,0.657 -0.172,0.126 -0.536,0.207 -1.016,0.207 h -1.076 z"
             style="fill:#231f20;fill-opacity:1;fill-rule:nonzero;stroke:none"
             id="path1627"
             inkscape:connector-curvature="0" />
        </g>
        <g
           id="g1629"
           transform="translate(540.49,805.616)">
          <path
             d="M 0,0 H 9.569 L 9.256,-1.233 H 8.155 c -0.551,0 -0.91,-0.081 -1.117,-0.232 -0.222,-0.162 -0.399,-0.44 -0.49,-0.799 L 2.587,-17.83 c -0.026,-0.172 -0.046,-0.314 -0.046,-0.424 0,-0.283 0.071,-0.495 0.243,-0.612 0.268,-0.197 0.637,-0.283 1.132,-0.283 h 1.435 l -0.344,-1.222 h -9.322 l 0.319,1.222 h 1.045 c 0.768,0 1.223,0.364 1.38,1.076 L 2.39,-2.582 c 0.061,0.187 0.061,0.369 0.061,0.52 0,0.263 -0.086,0.455 -0.273,0.622 -0.198,0.152 -0.495,0.207 -0.94,0.207 h -1.521 z"
             style="fill:#231f20;fill-opacity:1;fill-rule:nonzero;stroke:none"
             id="path1631"
             inkscape:connector-curvature="0" />
        </g>
      </g>
    </g>
  </g>
</svg>
